<mxfile host="app.diagrams.net" modified="2021-06-08T05:32:33.319Z" agent="5.0 (Windows NT 10.0; WOW64) AppleWebKit/537.36 (KHTML, like Gecko) Chrome/86.0.4240.198 Safari/537.36" etag="sfqcUBhI-vyESGyBuYe3" version="14.7.6" type="github">
  <diagram name="Page-1" id="099fd60b-425b-db50-ffb0-6b813814b670">
    <mxGraphModel dx="677" dy="362" grid="1" gridSize="10" guides="1" tooltips="1" connect="1" arrows="1" fold="1" page="1" pageScale="1" pageWidth="850" pageHeight="1100" background="#ffffff" math="0" shadow="0">
      <root>
        <mxCell id="0" />
        <mxCell id="1" parent="0" />
        <mxCell id="GNvcfdCQOV_bqqbBSyqy-31" value="" style="shape=flexArrow;endArrow=classic;html=1;strokeWidth=1;endWidth=15;endSize=7.28;targetPerimeterSpacing=0;" parent="1" edge="1">
          <mxGeometry x="280" y="246" width="50" height="50" as="geometry">
            <mxPoint x="389.5" y="1072" as="sourcePoint" />
            <mxPoint x="390" y="1112" as="targetPoint" />
          </mxGeometry>
        </mxCell>
        <mxCell id="GNvcfdCQOV_bqqbBSyqy-1" value="Conv1D（3x1）" style="rounded=0;whiteSpace=wrap;html=1;fillColor=#fff2cc;strokeColor=#d6b656;direction=west;horizontal=1;labelPosition=center;verticalLabelPosition=top;align=center;verticalAlign=bottom;" parent="1" vertex="1">
          <mxGeometry x="194" y="94.5" width="30" height="80" as="geometry" />
        </mxCell>
        <mxCell id="_m3RrRj9yZrcuPJrK2UF-9" style="edgeStyle=orthogonalEdgeStyle;rounded=0;orthogonalLoop=1;jettySize=auto;html=1;entryX=0.5;entryY=0;entryDx=0;entryDy=0;" edge="1" parent="1" source="GNvcfdCQOV_bqqbBSyqy-5" target="_m3RrRj9yZrcuPJrK2UF-2">
          <mxGeometry relative="1" as="geometry" />
        </mxCell>
        <mxCell id="GNvcfdCQOV_bqqbBSyqy-5" value="Input" style="rounded=0;whiteSpace=wrap;html=1;fillColor=#BFBFBF;direction=east;fontFamily=Helvetica;labelPosition=center;verticalLabelPosition=top;align=center;verticalAlign=bottom;horizontal=1;" parent="1" vertex="1">
          <mxGeometry x="120" y="99.5" width="30" height="80" as="geometry" />
        </mxCell>
        <mxCell id="GNvcfdCQOV_bqqbBSyqy-8" value="Conv1D" style="rounded=0;whiteSpace=wrap;html=1;fillColor=#fff2cc;strokeColor=#d6b656;direction=east;" parent="1" vertex="1">
          <mxGeometry x="280" y="326" width="220" height="40" as="geometry" />
        </mxCell>
        <mxCell id="GNvcfdCQOV_bqqbBSyqy-11" value="MaxPool" style="rounded=0;whiteSpace=wrap;html=1;fillColor=#d5e8d4;strokeColor=#82b366;direction=south;labelPosition=center;verticalLabelPosition=top;align=center;verticalAlign=bottom;" parent="1" vertex="1">
          <mxGeometry x="279" y="99" width="30" height="80" as="geometry" />
        </mxCell>
        <mxCell id="GNvcfdCQOV_bqqbBSyqy-12" value="Conv1D" style="rounded=0;whiteSpace=wrap;html=1;fillColor=#fff2cc;strokeColor=#d6b656;direction=east;" parent="1" vertex="1">
          <mxGeometry x="280" y="406" width="220" height="40" as="geometry" />
        </mxCell>
        <mxCell id="GNvcfdCQOV_bqqbBSyqy-15" value="Conv1D" style="rounded=0;whiteSpace=wrap;html=1;fillColor=#fff2cc;strokeColor=#d6b656;direction=east;" parent="1" vertex="1">
          <mxGeometry x="280" y="446" width="220" height="40" as="geometry" />
        </mxCell>
        <mxCell id="GNvcfdCQOV_bqqbBSyqy-18" value="MaxPool" style="rounded=0;whiteSpace=wrap;html=1;fillColor=#d5e8d4;strokeColor=#82b366;direction=east;" parent="1" vertex="1">
          <mxGeometry x="310" y="486" width="160" height="40" as="geometry" />
        </mxCell>
        <mxCell id="GNvcfdCQOV_bqqbBSyqy-22" value="Conv1D" style="rounded=0;whiteSpace=wrap;html=1;direction=east;" parent="1" vertex="1">
          <mxGeometry x="280" y="526" width="220" height="40" as="geometry" />
        </mxCell>
        <mxCell id="GNvcfdCQOV_bqqbBSyqy-23" value="Conv1D" style="rounded=0;whiteSpace=wrap;html=1;fillColor=#fff2cc;strokeColor=#d6b656;direction=east;" parent="1" vertex="1">
          <mxGeometry x="280" y="566" width="220" height="40" as="geometry" />
        </mxCell>
        <mxCell id="GNvcfdCQOV_bqqbBSyqy-24" value="MaxPool" style="rounded=0;whiteSpace=wrap;html=1;fillColor=#d5e8d4;strokeColor=#82b366;direction=east;" parent="1" vertex="1">
          <mxGeometry x="310" y="646" width="160" height="40" as="geometry" />
        </mxCell>
        <mxCell id="GNvcfdCQOV_bqqbBSyqy-26" value="Conv1D" style="rounded=0;whiteSpace=wrap;html=1;direction=east;" parent="1" vertex="1">
          <mxGeometry x="280" y="606" width="220" height="40" as="geometry" />
        </mxCell>
        <mxCell id="GNvcfdCQOV_bqqbBSyqy-27" value="Conv1D" style="rounded=0;whiteSpace=wrap;html=1;fillColor=#fff2cc;strokeColor=#d6b656;direction=east;" parent="1" vertex="1">
          <mxGeometry x="280" y="686" width="220" height="40" as="geometry" />
        </mxCell>
        <mxCell id="GNvcfdCQOV_bqqbBSyqy-28" value="Conv1D" style="rounded=0;whiteSpace=wrap;html=1;fillColor=#fff2cc;strokeColor=#d6b656;direction=east;" parent="1" vertex="1">
          <mxGeometry x="280" y="726" width="220" height="40" as="geometry" />
        </mxCell>
        <mxCell id="GNvcfdCQOV_bqqbBSyqy-29" value="MaxPool" style="rounded=0;whiteSpace=wrap;html=1;fillColor=#d5e8d4;strokeColor=#82b366;direction=east;" parent="1" vertex="1">
          <mxGeometry x="310" y="806" width="160" height="40" as="geometry" />
        </mxCell>
        <mxCell id="GNvcfdCQOV_bqqbBSyqy-30" value="Conv1D" style="rounded=0;whiteSpace=wrap;html=1;fillColor=#fff2cc;strokeColor=#d6b656;direction=east;" parent="1" vertex="1">
          <mxGeometry x="280" y="766" width="220" height="40" as="geometry" />
        </mxCell>
        <mxCell id="GNvcfdCQOV_bqqbBSyqy-32" value="Output" style="rounded=0;whiteSpace=wrap;html=1;fillColor=#BFBFBF;direction=east;" parent="1" vertex="1">
          <mxGeometry x="330" y="1032" width="120" height="34" as="geometry" />
        </mxCell>
        <mxCell id="GNvcfdCQOV_bqqbBSyqy-33" value="Attention" style="rounded=0;whiteSpace=wrap;html=1;fillColor=#f8cecc;strokeColor=#b85450;direction=east;" parent="1" vertex="1">
          <mxGeometry x="280" y="860" width="220" height="40" as="geometry" />
        </mxCell>
        <mxCell id="GNvcfdCQOV_bqqbBSyqy-34" value="Dense" style="rounded=0;whiteSpace=wrap;html=1;strokeColor=#666666;fontColor=#333333;fillColor=#D9D9D9;direction=east;" parent="1" vertex="1">
          <mxGeometry x="280" y="900" width="220" height="40" as="geometry" />
        </mxCell>
        <mxCell id="GNvcfdCQOV_bqqbBSyqy-35" value="Dropout" style="rounded=0;whiteSpace=wrap;html=1;strokeColor=#666666;fontColor=#333333;fillColor=#858585;direction=east;" parent="1" vertex="1">
          <mxGeometry x="280" y="940" width="220" height="40" as="geometry" />
        </mxCell>
        <mxCell id="GNvcfdCQOV_bqqbBSyqy-39" value="Dense" style="rounded=0;whiteSpace=wrap;html=1;strokeColor=#666666;fontColor=#333333;fillColor=#D9D9D9;direction=east;" parent="1" vertex="1">
          <mxGeometry x="280" y="980" width="220" height="40" as="geometry" />
        </mxCell>
        <mxCell id="GNvcfdCQOV_bqqbBSyqy-42" value="Conv1D" style="rounded=0;whiteSpace=wrap;html=1;direction=east;" parent="1" vertex="1">
          <mxGeometry x="280" y="526" width="220" height="40" as="geometry" />
        </mxCell>
        <mxCell id="GNvcfdCQOV_bqqbBSyqy-43" value="Conv1D" style="rounded=0;whiteSpace=wrap;html=1;direction=east;" parent="1" vertex="1">
          <mxGeometry x="280" y="526" width="220" height="40" as="geometry" />
        </mxCell>
        <mxCell id="GNvcfdCQOV_bqqbBSyqy-44" value="Conv1D" style="rounded=0;whiteSpace=wrap;html=1;direction=east;" parent="1" vertex="1">
          <mxGeometry x="280" y="606" width="220" height="40" as="geometry" />
        </mxCell>
        <mxCell id="GNvcfdCQOV_bqqbBSyqy-45" value="Conv1D" style="rounded=0;whiteSpace=wrap;html=1;fillColor=#fff2cc;strokeColor=#d6b656;direction=east;" parent="1" vertex="1">
          <mxGeometry x="280" y="526" width="220" height="40" as="geometry" />
        </mxCell>
        <mxCell id="GNvcfdCQOV_bqqbBSyqy-46" value="Conv1D" style="rounded=0;whiteSpace=wrap;html=1;fillColor=#fff2cc;strokeColor=#d6b656;direction=east;" parent="1" vertex="1">
          <mxGeometry x="280" y="606" width="220" height="40" as="geometry" />
        </mxCell>
        <mxCell id="GNvcfdCQOV_bqqbBSyqy-47" value="" style="shape=curlyBracket;whiteSpace=wrap;html=1;rounded=1;flipH=1;fillColor=#D9D9D9;direction=east;" parent="1" vertex="1">
          <mxGeometry x="520" y="290" width="20" height="552" as="geometry" />
        </mxCell>
        <mxCell id="GNvcfdCQOV_bqqbBSyqy-48" value="CNN part" style="text;html=1;strokeColor=none;fillColor=none;align=center;verticalAlign=middle;whiteSpace=wrap;rounded=0;fontSize=16;direction=east;" parent="1" vertex="1">
          <mxGeometry x="550" y="556" width="70" height="20" as="geometry" />
        </mxCell>
        <mxCell id="GNvcfdCQOV_bqqbBSyqy-49" value="" style="shape=curlyBracket;whiteSpace=wrap;html=1;rounded=1;flipH=1;fillColor=#D9D9D9;direction=east;" parent="1" vertex="1">
          <mxGeometry x="520" y="860" width="20" height="162" as="geometry" />
        </mxCell>
        <mxCell id="GNvcfdCQOV_bqqbBSyqy-50" value="ATT part" style="text;html=1;strokeColor=none;fillColor=none;align=center;verticalAlign=middle;whiteSpace=wrap;rounded=0;fontSize=16;direction=east;" parent="1" vertex="1">
          <mxGeometry x="550" y="931" width="70" height="20" as="geometry" />
        </mxCell>
        <mxCell id="_m3RrRj9yZrcuPJrK2UF-7" value="" style="edgeStyle=orthogonalEdgeStyle;rounded=0;orthogonalLoop=1;jettySize=auto;html=1;" edge="1" parent="1" source="_m3RrRj9yZrcuPJrK2UF-2" target="GNvcfdCQOV_bqqbBSyqy-11">
          <mxGeometry relative="1" as="geometry" />
        </mxCell>
        <mxCell id="_m3RrRj9yZrcuPJrK2UF-2" value="" style="rounded=0;whiteSpace=wrap;html=1;fillColor=#fff2cc;strokeColor=#d6b656;direction=north;horizontal=1;labelPosition=center;verticalLabelPosition=top;align=center;verticalAlign=bottom;" vertex="1" parent="1">
          <mxGeometry x="188" y="99.5" width="30" height="80" as="geometry" />
        </mxCell>
        <mxCell id="_m3RrRj9yZrcuPJrK2UF-10" value="Conv1D（3x1）" style="rounded=0;whiteSpace=wrap;html=1;fillColor=#fff2cc;strokeColor=#d6b656;direction=west;horizontal=1;labelPosition=center;verticalLabelPosition=top;align=center;verticalAlign=bottom;" vertex="1" parent="1">
          <mxGeometry x="358.5" y="105.5" width="50" height="50" as="geometry" />
        </mxCell>
        <mxCell id="_m3RrRj9yZrcuPJrK2UF-11" style="edgeStyle=orthogonalEdgeStyle;rounded=0;orthogonalLoop=1;jettySize=auto;html=1;entryX=0.5;entryY=0;entryDx=0;entryDy=0;" edge="1" target="_m3RrRj9yZrcuPJrK2UF-14" parent="1">
          <mxGeometry relative="1" as="geometry">
            <mxPoint x="310.5" y="139.48275862068965" as="sourcePoint" />
          </mxGeometry>
        </mxCell>
        <mxCell id="_m3RrRj9yZrcuPJrK2UF-12" value="MaxPool" style="rounded=0;whiteSpace=wrap;html=1;fillColor=#d5e8d4;strokeColor=#82b366;direction=south;labelPosition=center;verticalLabelPosition=top;align=center;verticalAlign=bottom;" vertex="1" parent="1">
          <mxGeometry x="439.5" y="99" width="30" height="80" as="geometry" />
        </mxCell>
        <mxCell id="_m3RrRj9yZrcuPJrK2UF-13" value="" style="edgeStyle=orthogonalEdgeStyle;rounded=0;orthogonalLoop=1;jettySize=auto;html=1;" edge="1" source="_m3RrRj9yZrcuPJrK2UF-14" target="_m3RrRj9yZrcuPJrK2UF-12" parent="1">
          <mxGeometry relative="1" as="geometry" />
        </mxCell>
        <mxCell id="_m3RrRj9yZrcuPJrK2UF-14" value="" style="rounded=0;whiteSpace=wrap;html=1;fillColor=#fff2cc;strokeColor=#d6b656;direction=north;horizontal=1;labelPosition=center;verticalLabelPosition=top;align=center;verticalAlign=bottom;" vertex="1" parent="1">
          <mxGeometry x="348.5" y="114.5" width="50" height="50" as="geometry" />
        </mxCell>
      </root>
    </mxGraphModel>
  </diagram>
</mxfile>
